<svg width="181" height="30" viewBox="0 0 181 30" fill="none" xmlns="http://www.w3.org/2000/svg">
<path d="M165.284 0L168.603 10.3647H179.344L170.654 16.7705L173.973 27.1353L165.284 20.7295L156.594 27.1353L159.913 16.7705L151.224 10.3647H161.965L165.284 0Z" fill="#D9D9D9"/>
<path d="M52.9309 0L56.2499 10.3647H66.9906L58.3012 16.7705L61.6203 27.1353L52.9309 20.7295L44.2415 27.1353L47.5605 16.7705L38.8711 10.3647H49.6118L52.9309 0Z" fill="#AA5E7F"/>
<path d="M15.4799 0L18.7989 10.3647H29.5396L20.8502 16.7705L24.1693 27.1353L15.4799 20.7295L6.79048 27.1353L10.1095 16.7705L1.42014 10.3647H12.1608L15.4799 0Z" fill="#AA5E7F"/>
<path d="M90.3818 0L93.7008 10.3647H104.442L95.7521 16.7705L99.0712 27.1353L90.3818 20.7295L81.6924 27.1353L85.0115 16.7705L76.3221 10.3647H87.0627L90.3818 0Z" fill="#AA5E7F"/>
<path d="M127.833 0L131.152 10.3647H141.893L133.203 16.7705L136.522 27.1353L127.833 20.7295L119.143 27.1353L122.463 16.7705L113.773 10.3647H124.514L127.833 0Z" fill="#AA5E7F"/>
</svg>
